<svg xmlns="http://www.w3.org/2000/svg" viewBox="0 0 450.34 205.35"><title>Asset 1</title><g id="Layer_2" data-name="Layer 2"><g id="Layer_1-2" data-name="Layer 1"><path d="M450.34,28.65c-1.15,3.29-2.16,6.35-3.28,9.37q-13.76,37.21-27.55,74.43a2.24,2.24,0,0,1-1.4,1.45Q409,117.56,400,121.33a25.84,25.84,0,0,0-3.44,1.93,2,2,0,0,0-.89,2.16c.88,6.81,1.72,13.62,2.59,20.42q.34,2.73.83,5.44c.37,2.08.11,2.86-1.77,3.8-2.13,1.08-4.35,2-6.52,3a26.48,26.48,0,0,0-2.54,1.31,2.74,2.74,0,0,0-1.54,2.41A23.16,23.16,0,0,1,383.88,172c-.34.72-.67,1.45-1,2.19a4.86,4.86,0,0,0,.07,4.13c1,2.25.74,4.72.51,7.09a41.64,41.64,0,0,1-1,4.92c-1.07,4.71-4.38,7.79-7.93,10.63-1.81,1.44-3.77,2.69-5.67,4a1.65,1.65,0,0,1-2.54-.41c-4.05-5-8.2-9.82-12.22-14.79a356.45,356.45,0,0,0-47-48c-18.7-15.76-39.65-27.75-62-37.48A362.27,362.27,0,0,0,197,87.47l-1.37-.42,5.87-1.19c11.44-2.3,22.86-4.7,34.33-6.85,6.89-1.29,13.84-2.29,20.79-3.23a153.05,153.05,0,0,1,24.87-1.16c4.47.13,8.93.39,13.4.58.11,0,.22,0,.5-.26-.15-.06-.3-.11-.44-.18C288.3,71.52,281.74,68,274.58,66a63.19,63.19,0,0,0-15.8-2.48c-8.34-.26-16.7-.36-25-.56a19.47,19.47,0,0,1-4-.48,2.31,2.31,0,0,1-1.52-1.25,88.12,88.12,0,0,1-2.68-18.06c-.05-1.81.14-2.12,1.94-2.38,4.46-.63,8.92-1.36,13.41-1.66,8.57-.56,17.15-.84,25.72-1.26,1,0,1.95-.25,2.92-.38l.05-.35c-1.58-.56-3.16-1.15-4.75-1.67a125.55,125.55,0,0,0-27.24-5.52c-3.86-.34-7.74-.37-11.61-.52-3.12-.12-3.2-.1-3.68-3.07-1.14-7.2-2.19-14.42-3.31-21.63-.13-.83.2-1.08.91-1.16,4-.47,8.07-1,12.12-1.42,4.72-.46,9.46-.82,14.2-1.13,4.3-.29,8.61-.51,12.92-.63,6.79-.18,13.59-.41,20.38-.33,6.54.07,13.09.46,19.63.81,5.14.27,10.28.61,15.41,1.06a186,186,0,0,1,43,8.5c10.91,3.66,21.72,7.63,32.58,11.44,7.67,2.68,15.33,5.45,23.34,6.94A84.46,84.46,0,0,0,426,30.14c5.09.18,10.21,0,15.31-.26a63,63,0,0,0,6.5-1C448.53,28.77,449.28,28.74,450.34,28.65ZM362,167.28l-.14-.42a7.6,7.6,0,0,1,.94-.86c2-1.3,3.9-2.64,5.92-3.82a12.3,12.3,0,0,1,6.28-1.72c1.27,0,2.55-.12,3.82-.2s1.63-.72,1.7-1.87a3.85,3.85,0,0,0-2.07-3.77c-1.29-.78-2.69-1.41-3.93-2.27a10.2,10.2,0,0,1-1.69-2,7.68,7.68,0,0,1,2.38-1.12c3.85-.35,7.71-.52,11.58-.77,1.56-.1,3.13-.25,4.77-.38C391,143.91,390.53,140,390,136c-.68-5-1.35-10-2.06-15-.36-2.56-.78-5.12-1.21-7.67a1.64,1.64,0,0,0-2-1.58c-4.82.7-8.71,2.77-10.81,7.44q-.82,1.86-1.83,3.63a2.59,2.59,0,0,1-2.72,1.32c-3.54-.32-7.08-.63-10.62-.88-4.22-.29-8.45-.5-12.67-.78-1.13-.08-2.26-.3-3.56-.47a7.68,7.68,0,0,1,.8-1.67c1.9-2.26,3.75-4.56,5.82-6.66a6.91,6.91,0,0,1,3.31-1.78c3-.66,6-1.07,9-1.52,1.32-.2,2.66-.26,4.11-.4-2-1.88-7.06-4.39-10.45-5.2a50.34,50.34,0,0,0-18.67-.67,25.23,25.23,0,0,0-13.61,6,26.5,26.5,0,0,0-2.88,3.19,1.27,1.27,0,0,0,.23,1.91c.89.8,1.73,1.66,2.66,2.42q10.56,8.58,21.17,17.11a4,4,0,0,1,1.58,2.42c.86,4.13,1.76,8.25,2.58,12.39a25.88,25.88,0,0,1,.24,3.18l-.45.16c-1-1.21-2.08-2.39-3-3.64-2.09-2.68-4-5.51-6.23-8-4-4.6-8.79-8.26-14.84-9.85a12.66,12.66,0,0,0-13.32,3.84l1,.75c4.61,3.64,9.41,7.06,13.79,11a280.35,280.35,0,0,1,36,39.13c2.26,2.94,4.7,5.75,7.18,8.51,1.18,1.3,2.16,1.23,3.61.2a14.37,14.37,0,0,0,4.06-5,8.12,8.12,0,0,0-.42-9.42c-1.44-2-2.93-3.9-4.38-5.86-.31-.42-.54-.91-1-1.7l4.8-.3c1.44-.09,3,0,3.9-1.38s1.63-2.8,2.43-4.21C374.87,165.63,368.45,166.34,362,167.28ZM365,46.1l-.18.26c.46.67.89,1.37,1.38,2,3.17,4.31,6.39,8.59,9.53,12.93,1.18,1.62,1.16,1.72-.13,3.29-2.89,3.52-5.83,7-8.76,10.49l-5,6c.59-.06.86-.06,1.12-.12,7.15-1.6,14.3-3.18,21.44-4.83a3.37,3.37,0,0,1,3.33.7,30,30,0,0,1,2.73,2.68c4.53,5.43,9,10.9,13.51,16.36.2.24.42.46.79.86-.16-2.44-.29-4.59-.45-6.74-.39-5.33-.71-10.67-1.28-16a2,2,0,0,1,1.45-2.43c2-.65,3.95-1.22,5.94-1.78,3.22-.89,6.46-1.73,9.67-2.65a11.24,11.24,0,0,0,1.9-1l0-.39c-.54-.22-1.07-.45-1.61-.64l-15.38-5.58a5.51,5.51,0,0,1-3.73-4.72c-.45-3-.8-6-1.24-9-.25-1.73-.6-3.44-1-5.47-.91.82-1.5,1.3-2,1.84-3.17,3.32-6.35,6.64-9.48,10a1.5,1.5,0,0,1-1.85.48Q377.84,50,370,47.51C368.34,47,366.65,46.57,365,46.1Z"/><path d="M0,51.66c1.68-.37,3.36-.8,5.05-1.08q36.95-6,73.21-15.29C101,29.49,123.75,23.5,146.57,17.9c13.61-3.34,27.35-6.16,41.06-9.08,6.74-1.43,13.55-2.53,20.33-3.77,1.06-.19,2.14-.27,3.2-.45,1.71-.28,2.27,0,2.72,1.68.64,2.43,1.18,4.88,1.65,7.34.74,3.84,1.38,7.69,2.07,11.53.74,4.17-.24,5.4-4.42,5.37a93,93,0,0,0-16.64,1.84q-14.59,2.55-29.14,5.43c-10.74,2.12-21.44,4.48-32.19,6.57s-21.3,4-32,5.87C96.51,51.38,89.75,52.29,83,53.06c-5.7.64-11.45,1-17.19,1.33-3.94.24-7.9.37-11.85.4-7,.06-14,.14-21-.06s-14-.63-21.06-1.1c-3.57-.24-7.13-.78-10.69-1.21A6.62,6.62,0,0,1,0,52Z"/><path d="M100.79,66.79l3.66-.34c6-.58,12.11-.88,18.1-1.8,9-1.39,18.13-2.81,27-4.93,19-4.53,37.83-9.54,56.74-14.32,3.74-.94,7.51-1.79,11.28-2.65,2.51-.57,3.39-.09,3.92,2.46.82,4,1.51,8.06,2.2,12.11.31,1.84.48,3.71.73,5.57.11.78-.16,1.17-1,1.28-5.3.71-10.58,1.48-15.88,2.16q-7.71,1-15.45,1.84c-4.83.55-9.68,1-14.52,1.53-3.89.39-7.79.76-11.69,1.08-2.34.19-4.7.32-7.05.34-5.76,0-11.52.15-17.27-.07-6.94-.27-13.88-.69-20.79-1.35-6.7-.64-13.37-1.66-20-2.51Z"/></g></g></svg>