<?xml version="1.0" encoding="utf-8"?>
<svg id="icon-drone" viewBox="0 0 32 32" xmlns="http://www.w3.org/2000/svg">
<path fill="#c7cfe2" style="fill: #c7cfe2" d="M31.448 8.828h-12.138c-0.305 0-0.552-0.247-0.552-0.552v0c0-0.305 0.247-0.552 0.552-0.552h12.138c0.305 0 0.552 0.247 0.552 0.552v0c-0 0.305-0.247 0.552-0.552 0.552z"></path>
<path fill="#c7cfe2" style="fill: #c7cfe2" d="M12.69 8.828h-12.138c-0.305 0-0.552-0.247-0.552-0.552v0c0-0.305 0.247-0.552 0.552-0.552h12.138c0.305 0 0.552 0.247 0.552 0.552v0c-0 0.305-0.247 0.552-0.552 0.552z"></path>
<path fill="#959cb3" style="fill: #959cb3" d="M6.621 6.621v0c-0.305 0-0.552 0.247-0.552 0.552v2.759h1.103v-2.759c0-0.305-0.247-0.552-0.552-0.552z"></path>
<path fill="#959cb3" style="fill: #959cb3" d="M25.379 6.621v0c-0.305 0-0.552 0.247-0.552 0.552v2.759h1.103v-2.759c0-0.305-0.247-0.552-0.552-0.552z"></path>
<path fill="#464655" style="fill: #464655" d="M14.069 17.655v0c-0.457 0-0.828-0.371-0.828-0.828v-1.655c0-0.457 0.371-0.828 0.828-0.828v0c0.457 0 0.828 0.371 0.828 0.828v1.655c0 0.457-0.37 0.828-0.828 0.828z"></path>
<path fill="#464655" style="fill: #464655" d="M17.931 17.655v0c-0.457 0-0.828-0.371-0.828-0.828v-1.655c0-0.457 0.371-0.828 0.828-0.828v0c0.457 0 0.828 0.371 0.828 0.828v1.655c0 0.457-0.371 0.828-0.828 0.828z"></path>
<path fill="#5b5d6e" style="fill: #5b5d6e" d="M14.897 15.448h2.207v5.517h-2.207v-5.517z"></path>
<path fill="#c7cfe2" style="fill: #c7cfe2" d="M9.379 25.379c-0.305 0-0.552-0.247-0.552-0.552 0-4.915 0.901-7.206 1.438-8.135 0.142-0.245 0.217-0.528 0.217-0.818v-1.53c0-0.305 0.247-0.552 0.552-0.552s0.552 0.247 0.552 0.552v1.53c0 0.484-0.126 0.957-0.366 1.37-0.388 0.67-1.29 2.751-1.29 7.582-0 0.305-0.247 0.552-0.552 0.552z"></path>
<path fill="#c7cfe2" style="fill: #c7cfe2" d="M22.621 25.379c-0.305 0-0.552-0.247-0.552-0.552 0-4.831-0.902-6.912-1.29-7.582-0.239-0.413-0.365-0.887-0.365-1.37v-1.53c0-0.305 0.247-0.552 0.552-0.552s0.552 0.247 0.552 0.552v1.53c0 0.29 0.075 0.572 0.217 0.818 0.537 0.929 1.438 3.22 1.438 8.135 0 0.305-0.247 0.552-0.552 0.552z"></path>
<path fill="#afb9d2" style="fill: #afb9d2" d="M11.034 13.793h-0.552v0.552c0 0.305 0.247 0.552 0.552 0.552h1.655v-1.104h-1.655z"></path>
<path fill="#afb9d2" style="fill: #afb9d2" d="M20.965 13.793h-1.655v1.103h1.655c0.305 0 0.552-0.247 0.552-0.552v-0.552h-0.552z"></path>
<path fill="#82889d" style="fill: #82889d" d="M8.276 10.483h-3.31l0.399-0.799c0.093-0.187 0.284-0.305 0.493-0.305h1.525c0.209 0 0.4 0.118 0.493 0.305l0.399 0.799z"></path>
<path fill="#5b5d6e" style="fill: #5b5d6e" d="M4.965 10.483h3.31v1.103h-3.31v-1.103z"></path>
<path fill="#82889d" style="fill: #82889d" d="M27.035 10.483h-3.31l0.399-0.799c0.093-0.187 0.285-0.305 0.493-0.305h1.525c0.209 0 0.4 0.118 0.493 0.305l0.399 0.799z"></path>
<path fill="#5b5d6e" style="fill: #5b5d6e" d="M23.724 10.483h3.31v1.103h-3.31v-1.103z"></path>
<path fill="#e4eaf6" style="fill: #e4eaf6" d="M27.586 12.69h-23.172c-0.305 0-0.552-0.247-0.552-0.552v0c0-0.305 0.247-0.552 0.552-0.552h23.172c0.305 0 0.552 0.247 0.552 0.552v0c-0 0.305-0.247 0.552-0.552 0.552z"></path>
<path fill="#d7deed" style="fill: #d7deed" d="M20.929 10.424l-2.184-0.218c-1.825-0.183-3.665-0.183-5.49 0l-2.184 0.218c-0.38 0.038-0.736 0.206-1.006 0.477l-0.686 0.686h13.241l-0.686-0.686c-0.27-0.27-0.626-0.439-1.006-0.477z"></path>
<path fill="#d7deed" style="fill: #d7deed" d="M7.724 12.69l0.619 0.619c0.31 0.31 0.731 0.485 1.17 0.485h1.245c0.521 0 1.011 0.245 1.324 0.662l0.497 0.662c0.417 0.556 1.071 0.883 1.765 0.883h3.31c0.695 0 1.349-0.327 1.765-0.883l0.497-0.662c0.313-0.417 0.803-0.662 1.324-0.662h1.245c0.439 0 0.86-0.174 1.17-0.485l0.619-0.619h-16.552z"></path>
<path fill="#5b5d6e" style="fill: #5b5d6e" d="M12.276 21.793h1.862v1.655h-1.862v-1.655z"></path>
<path fill="#959cb3" style="fill: #959cb3" d="M19.862 24.828h-5.517c-0.305 0-0.552-0.247-0.552-0.552v-3.31c0-0.305 0.247-0.552 0.552-0.552h5.517c0.305 0 0.552 0.247 0.552 0.552v3.31c0 0.305-0.247 0.552-0.552 0.552z"></path>
<path fill="#c5d0e4" style="fill: #c5d0e4" d="M12.138 23.724h-0.552c-0.305 0-0.552-0.247-0.552-0.552v-1.103c0-0.305 0.247-0.552 0.552-0.552h0.552c0.305 0 0.552 0.247 0.552 0.552v1.103c-0 0.305-0.247 0.552-0.552 0.552z"></path>
<path fill="#464655" style="fill: #464655" d="M19.862 22.621c0 0.914-0.741 1.655-1.655 1.655s-1.655-0.741-1.655-1.655c0-0.914 0.741-1.655 1.655-1.655s1.655 0.741 1.655 1.655z"></path>
<path fill="#e4eaf6" style="fill: #e4eaf6" d="M18.759 22.621c0 0.305-0.247 0.552-0.552 0.552s-0.552-0.247-0.552-0.552c0-0.305 0.247-0.552 0.552-0.552s0.552 0.247 0.552 0.552z"></path>
<path fill="#e4eaf6" style="fill: #e4eaf6" d="M15.724 23.448c0 0.305-0.247 0.552-0.552 0.552s-0.552-0.247-0.552-0.552c0-0.305 0.247-0.552 0.552-0.552s0.552 0.247 0.552 0.552z"></path>
<path fill="#789178" style="fill: #789178" d="M15.448 22.345h-0.552c-0.152 0-0.276-0.123-0.276-0.276v-0.552c0-0.152 0.123-0.276 0.276-0.276h0.552c0.152 0 0.276 0.123 0.276 0.276v0.552c0 0.152-0.123 0.276-0.276 0.276z"></path>
<path fill="#ff6464" style="fill: #ff6464" d="M9.379 12.69h-0.552c-0.305 0-0.552-0.247-0.552-0.552v-0.552h1.655v0.552c0 0.305-0.247 0.552-0.552 0.552z"></path>
<path fill="#ff6464" style="fill: #ff6464" d="M23.724 12.69h-0.552c-0.305 0-0.552-0.247-0.552-0.552v-0.552h1.655v0.552c0 0.305-0.247 0.552-0.552 0.552z"></path>
<path fill="#c7cfe2" style="fill: #c7cfe2" d="M14.357 10.424l0.728-0.218c0.15-0.045 1.040-0.079 2.302-0.102-1.377-0.069-2.759-0.036-4.132 0.102l-2.184 0.218c-0.38 0.038-0.736 0.206-1.006 0.477l-0.686 0.686h4.414l0.229-0.686c0.090-0.27 0.209-0.439 0.335-0.477z"></path>
<path fill="#c7cfe2" style="fill: #c7cfe2" d="M14.86 15.117l-0.165-0.662c-0.104-0.417-0.268-0.662-0.441-0.662h-0.415c-0.146 0-0.287-0.174-0.39-0.485l-0.206-0.619h-5.517l0.619 0.619c0.31 0.31 0.731 0.485 1.17 0.485h1.245c0.521 0 1.011 0.245 1.324 0.662l0.497 0.662c0.417 0.556 1.071 0.883 1.765 0.883h1.103c-0.232 0-0.45-0.327-0.588-0.883z"></path>
</svg>