<?xml version="1.0" encoding="utf-8"?>
<svg viewBox="417.172 294.535 101.299 62.745" width="101.299" height="62.745" xmlns="http://www.w3.org/2000/svg">
  <g transform="matrix(0.133333, 0, 0, -0.133333, 249.33995, 826.017576)">
    <title>Duck</title>
    <path id="path-1" style="fill:#f1911d;fill-opacity:1;fill-rule:nonzero;stroke:none" d="M 1260.72 3822.77 C 1287.87 3866.05 1335.45 3896.8 1391.27 3907.16 C 1489.5 3925.41 1581.82 3873.46 1597.06 3791.35 C 1612.33 3709.21 1544.82 3627.54 1446.58 3609.31 C 1439.43 3607.97 1432.05 3607 1424.64 3606.42 C 1419.02 3605.97 1413.77 3609.21 1411.64 3614.43 C 1409.52 3619.64 1411.01 3625.64 1415.34 3629.24 C 1448.52 3656.92 1464.01 3691.91 1457.81 3725.24 C 1446.69 3785.12 1369.14 3821.11 1284.93 3805.46 C 1281.46 3804.82 1278.07 3804.14 1274.72 3803.32 C 1269.6 3802.07 1264.25 3804.06 1261.17 3808.34 C 1258.11 3812.61 1257.93 3818.3 1260.72 3822.77"/>
    <path id="path-2" style="fill:#885136;fill-opacity:1;fill-rule:nonzero;stroke:none" d="M 1295.09 3551.64 C 1307.36 3528.6 1342.96 3506.8 1365.99 3519.08 L 1454.58 3583.1 C 1477.61 3595.38 1486.33 3623.99 1474.05 3647.03 L 1474.05 3647.03 C 1461.78 3670.05 1433.16 3678.77 1410.13 3666.49 L 1307.59 3628.64 C 1284.57 3616.36 1282.81 3574.66 1295.09 3551.64 L 1295.09 3551.64"/>
    <path id="path-3" style="fill:#f5ab2a;fill-opacity:1;fill-rule:nonzero;stroke:none" d="M 1353.18 3582.61 C 1379.32 3533.56 1503.23 3548.46 1629.85 3615.94 C 1720.18 3664.1 1787.49 3725.93 1809.18 3775.21 C 1817.94 3795.17 1819.26 3813.01 1811.77 3827.05 C 1798.21 3852.5 1758.47 3860.72 1705.66 3853.3 C 1656.53 3846.52 1596.16 3826.18 1535.13 3793.65 C 1408.52 3726.16 1327.03 3631.66 1353.18 3582.61"/>
    <path id="path-4" style="fill:#f5ab2a;fill-opacity:1;fill-rule:nonzero;stroke:none" d="M 1281.15 3880.98 C 1312.27 3930.57 1366.81 3965.82 1430.78 3977.7 C 1543.35 3998.62 1649.17 3939.09 1666.65 3844.98 C 1684.14 3750.84 1606.76 3657.24 1494.18 3636.33 C 1485.97 3634.81 1477.51 3633.69 1469.02 3633.01 C 1462.59 3632.5 1456.57 3636.23 1454.13 3642.19 C 1451.69 3648.18 1453.4 3655.04 1458.36 3659.18 C 1496.4 3690.89 1514.15 3730.99 1507.04 3769.2 C 1494.3 3837.83 1405.4 3879.08 1308.91 3861.14 C 1304.94 3860.41 1301.05 3859.61 1297.18 3858.69 C 1291.34 3857.24 1285.2 3859.55 1281.68 3864.45 C 1278.16 3869.33 1277.95 3875.86 1281.15 3880.98"/>
    <path id="path-5" style="fill:#2e895f;fill-opacity:1;fill-rule:nonzero;stroke:none" d="M 1751.87 3837.77 C 1767.27 3808.88 1824.9 3809.52 1880.58 3839.2 C 1936.26 3868.87 1968.93 3916.36 1953.53 3945.26 C 1938.13 3974.14 1880.49 3973.51 1824.8 3943.83 C 1769.12 3914.16 1736.47 3866.66 1751.87 3837.77"/>
    <path id="path-6" style="fill:#f5ab2a;fill-opacity:1;fill-rule:nonzero;stroke:none" d="M 1913.19 3913.27 C 1917.05 3906.04 1926.02 3903.3 1933.25 3907.15 L 2010.63 3948.4 C 2017.86 3952.25 2020.6 3961.23 2016.74 3968.46 L 2011.51 3978.27 C 2007.67 3985.49 1998.69 3988.24 1991.46 3984.38 L 1966.48 3973.66 L 1910.59 3949.66 C 1903.36 3945.82 1900.63 3936.84 1904.48 3929.61 L 1913.19 3913.27"/>
    <path id="path-7" style="fill:#2e895f;fill-opacity:1;fill-rule:nonzero;stroke:none" d="M 1705.66 3853.3 C 1730.98 3809.26 1770.64 3780.86 1809.18 3775.21 C 1817.94 3795.17 1819.26 3813.01 1811.77 3827.05 C 1798.21 3852.5 1758.47 3860.72 1705.66 3853.3"/>
    <path id="path-8" style="fill:#44bc70;fill-opacity:1;fill-rule:nonzero;stroke:none" d="M 1882.25 3938.17 C 1883.88 3934.37 1878.13 3928.25 1869.4 3924.52 C 1860.68 3920.79 1852.29 3920.84 1850.66 3924.65 C 1849.03 3928.45 1854.78 3934.57 1863.51 3938.3 C 1872.23 3942.05 1880.62 3941.98 1882.25 3938.17"/>
  </g>
</svg>