<?xml version="1.0" standalone="no"?>
<svg version="1.0" xmlns="http://www.w3.org/2000/svg"
 width="500.000000pt" height="500.000000pt" viewBox="0 0 500.000000 500.000000"
 preserveAspectRatio="xMidYMid meet">
<g transform="translate(0.000000,500.000000) scale(0.100000,-0.100000)"
fill="red" stroke="2.000000pt">
<path d="M2815 3530 c-141 -6 -364 -26 -372 -34 -1 -1 7 -56 17 -121 11 -66
20 -123 20 -127 0 -5 28 -8 63 -8 95 0 217 -18 314 -46 49 -14 91 -28 95 -32
4 -4 -47 -8 -114 -9 -121 -1 -306 -19 -325 -31 -10 -6 1 -105 22 -197 4 -19
13 -20 182 -21 205 -1 280 -16 418 -83 l80 -39 -125 5 c-153 7 -315 -9 -504
-48 -77 -17 -194 -40 -258 -52 l-117 -23 124 -36 c247 -74 496 -182 703 -305
251 -149 534 -406 766 -696 65 -81 121 -147 124 -147 19 0 104 67 128 101 31
44 45 141 26 175 -8 14 -4 30 14 66 13 26 24 63 24 81 0 32 3 35 65 61 59 26
64 30 60 54 -9 52 -35 253 -35 271 0 13 29 29 118 64 l117 47 157 422 c87 232
156 423 154 425 -1 2 -27 -1 -56 -7 -75 -14 -216 -12 -302 4 -83 16 -187 50
-405 130 -315 116 -473 144 -918 160 -49 1 -166 0 -260 -4z m1439 -452 c17
-137 8 -123 98 -157 44 -17 91 -34 105 -37 36 -10 18 -19 -85 -44 -75 -18 -92
-26 -88 -39 2 -9 8 -65 11 -126 l7 -110 -87 107 c-71 88 -91 107 -109 103 -11
-3 -68 -16 -126 -29 -57 -14 -106 -24 -107 -22 -1 1 31 40 72 86 41 47 74 89
75 95 0 5 -27 44 -60 87 -33 42 -60 79 -60 82 0 2 50 -12 111 -32 l110 -37 57
61 c31 34 60 62 64 63 3 0 9 -23 12 -51z m-454 -589 c24 -5 60 -20 80 -32 l35
-22 -67 -6 c-36 -3 -77 -13 -91 -22 -28 -18 -82 -85 -75 -92 2 -2 56 -7 119
-10 62 -3 126 -8 141 -10 24 -4 30 1 47 39 21 48 48 70 98 81 30 6 32 4 38
-27 5 -29 45 -325 45 -334 0 -2 -41 -5 -92 -6 -105 -3 -121 -16 -59 -48 31
-15 41 -26 41 -45 0 -23 -4 -25 -47 -25 -35 0 -58 -8 -95 -31 -27 -17 -47 -33
-45 -35 2 -2 24 0 48 4 24 4 68 6 96 4 l53 -4 -15 -29 c-13 -25 -22 -29 -55
-29 -22 0 -40 -3 -40 -6 0 -3 16 -25 35 -48 21 -26 35 -54 35 -71 0 -35 -33
-88 -62 -102 -21 -10 -30 -1 -123 120 -119 154 -299 341 -409 422 l-78 59 22
18 c78 63 211 5 305 -132 27 -40 51 -67 53 -62 5 15 -25 163 -34 172 -5 4 -64
51 -131 105 -68 53 -123 101 -123 106 0 23 60 72 110 89 61 22 169 26 240 9z"/>
<path d="M2305 3479 c-343 -62 -458 -88 -960 -219 -440 -115 -678 -169 -916
-210 -94 -15 -173 -30 -175 -33 -14 -14 257 -32 461 -31 328 1 521 27 1085
145 296 62 506 99 575 99 64 0 65 3 44 115 -27 143 -27 145 -47 144 -9 -1 -39
-5 -67 -10z"/>
<path d="M2260 3066 c-91 -24 -246 -65 -345 -90 -201 -53 -409 -91 -560 -102
l-100 -8 75 -12 c164 -27 411 -38 582 -27 138 10 576 61 586 69 2 1 -4 50 -14
108 -16 95 -20 106 -39 105 -11 0 -94 -20 -185 -43z"/>
</g>
</svg>
