<?xml version="1.0" encoding="utf-8"?>
<svg viewBox="411.072 397.991 233.608 39.124" width="233.608" height="39.124" xmlns="http://www.w3.org/2000/svg">
  <g transform="matrix(0.133333, 0, 0, -0.133333, 80.601593, 651.133728)">
    <title>Rifle</title>
    <path id="path48" style="fill:#374454;fill-opacity:1;fill-rule:nonzero;stroke:none" d="M 3703.03 1872.03 C 3703.03 1864.22 3696.68 1857.89 3688.88 1857.89 L 3486.65 1857.89 C 3478.82 1857.89 3472.5 1864.22 3472.5 1872.03 L 3472.5 1872.03 C 3472.5 1879.86 3478.82 1886.18 3486.65 1886.18 L 3688.88 1886.18 C 3696.68 1886.18 3703.03 1879.86 3703.03 1872.03 L 3703.03 1872.03"/>
    <path id="path50" style="fill:#1e2733;fill-opacity:1;fill-rule:nonzero;stroke:none" d="M 3288.66 1836.53 C 3288.66 1834.43 3286.95 1832.71 3284.85 1832.71 L 3242.97 1832.71 C 3240.86 1832.71 3239.17 1834.43 3239.17 1836.53 L 3284.85 1873.64 C 3286.95 1873.64 3288.66 1871.94 3288.66 1869.84 L 3288.66 1836.53"/>
    <path id="path52" style="fill:#1e2733;fill-opacity:1;fill-rule:nonzero;stroke:none" d="M 3320.68 1879.06 C 3329.34 1878.94 3336.29 1871.83 3336.17 1863.14 L 3336.11 1857.9 C 3336 1849.24 3328.88 1842.3 3320.21 1842.4 L 3320.21 1842.4 C 3311.54 1842.53 3304.59 1849.64 3304.7 1858.32 L 3304.79 1863.55 C 3304.88 1872.22 3312 1879.17 3320.68 1879.06 L 3320.68 1879.06"/>
    <path id="path54" style="fill:#1e2733;fill-opacity:1;fill-rule:nonzero;stroke:none" d="M 3367.66 1867.98 C 3371.99 1867.94 3375.46 1864.37 3375.4 1860.03 L 3375.4 1860.03 C 3375.33 1855.69 3371.78 1852.23 3367.43 1852.29 L 3328.18 1852.78 C 3323.86 1852.84 3320.38 1856.4 3320.45 1860.73 L 3320.45 1860.73 C 3320.48 1865.07 3324.06 1868.54 3328.39 1868.49 L 3367.66 1867.98"/>
    <path id="path56" style="fill:#1e2733;fill-opacity:1;fill-rule:nonzero;stroke:none" d="M 3410.39 1726.62 C 3405.43 1721.64 3397.36 1721.64 3392.39 1726.62 L 3392.39 1726.62 C 3387.42 1731.58 3387.42 1739.66 3392.39 1744.63 L 3432.41 1784.62 C 3437.37 1789.59 3445.43 1789.59 3450.4 1784.62 L 3450.4 1784.62 C 3455.37 1779.66 3455.37 1771.6 3450.4 1766.63 L 3410.39 1726.62"/>
    <path id="path58" style="fill:#1e2733;fill-opacity:1;fill-rule:nonzero;stroke:none" d="M 3359.37 1788.1 C 3354.68 1788.1 3350.89 1784.29 3350.89 1779.62 L 3350.89 1726.38 C 3350.89 1721.7 3354.68 1717.88 3359.37 1717.88 L 3464.03 1717.88 C 3468.72 1717.88 3472.51 1721.7 3472.51 1726.38 L 3472.51 1779.62 C 3472.51 1784.29 3468.72 1788.1 3464.03 1788.1 Z M 3464.03 1700.93 L 3359.37 1700.93 C 3345.33 1700.93 3333.91 1712.33 3333.91 1726.38 L 3333.91 1779.62 C 3333.91 1793.65 3345.33 1805.08 3359.37 1805.08 L 3464.03 1805.08 C 3478.07 1805.08 3489.48 1793.65 3489.48 1779.62 L 3489.48 1726.38 C 3489.48 1712.33 3478.07 1700.93 3464.03 1700.93"/>
    <path id="path60" style="fill:#465366;fill-opacity:1;fill-rule:nonzero;stroke:none" d="M 4230.59 1850.83 L 4230.59 1828.16 C 4230.59 1827.74 4230.59 1827.4 4230.5 1827.07 C 4230.5 1826.3 4230.41 1825.54 4230.23 1824.79 C 4228.63 1817.05 4221.75 1811.2 4213.61 1811.2 L 3471.1 1811.2 C 3461.78 1811.2 3454.13 1818.83 3454.13 1828.16 L 3454.13 1850.83 C 3454.13 1860.17 3461.78 1867.79 3471.1 1867.79 L 4213.61 1867.79 C 4222.93 1867.79 4230.59 1860.17 4230.59 1850.83"/>
    <path id="path62" style="fill:#2a3544;fill-opacity:1;fill-rule:nonzero;stroke:none" d="M 4230.5 1827.07 C 4230.5 1826.3 4230.41 1825.54 4230.23 1824.79 C 4228.63 1817.05 4221.75 1811.2 4213.61 1811.2 L 3493.01 1811.2 C 3491.46 1812.48 3490.45 1815.35 3490.45 1818.74 C 3490.45 1823.33 3492.4 1827.07 3494.78 1827.07 L 4230.5 1827.07"/>
    <path id="path64" style="fill:#986144;fill-opacity:1;fill-rule:nonzero;stroke:none" d="M 3825.05 1800.44 C 3825.05 1792.35 3818.48 1785.78 3810.39 1785.78 L 3428.84 1777.29 C 3420.73 1777.29 3414.15 1783.87 3414.15 1791.96 L 3414.15 1828.6 C 3414.15 1836.7 3420.73 1843.27 3428.84 1843.27 L 3810.39 1843.27 C 3818.48 1843.27 3825.05 1836.7 3825.05 1828.6 L 3825.05 1800.44"/>
    <path id="path66" style="fill:#986144;fill-opacity:1;fill-rule:nonzero;stroke:none" d="M 3256.34 1822.98 L 3256.34 1749.4 C 3256.34 1740.07 3248.78 1732.42 3239.37 1732.42 L 3210.85 1727.59 L 2512.21 1608.02 L 2495.49 1605.14 C 2486.08 1605.14 2478.53 1612.77 2478.53 1622.12 L 2478.53 1856.91 C 2478.53 1866.34 2486.08 1873.9 2495.49 1873.9 L 2512.21 1873.12 L 3239.37 1839.94 C 3248.78 1839.94 3256.34 1832.39 3256.34 1822.98"/>
    <path id="path68" style="fill:#2a3544;fill-opacity:1;fill-rule:nonzero;stroke:none" d="M 4202.29 1866.62 C 4202.29 1861.8 4198.38 1857.89 4193.55 1857.89 L 4164.35 1857.89 C 4159.53 1857.89 4155.63 1861.8 4155.63 1866.62 L 4155.63 1866.62 C 4155.63 1871.44 4159.53 1875.34 4164.35 1875.34 L 4193.55 1875.34 C 4198.38 1875.34 4202.29 1871.44 4202.29 1866.62 L 4202.29 1866.62"/>
    <path id="path70" style="fill:#784129;fill-opacity:1;fill-rule:nonzero;stroke:none" d="M 3210.85 1736.01 L 3210.85 1727.59 L 2512.21 1608.02 L 2495.49 1605.14 C 2486.08 1605.14 2478.53 1612.77 2478.53 1622.12 L 2478.53 1752.96 L 3193.87 1752.96 C 3203.31 1752.96 3210.85 1745.42 3210.85 1736.01"/>
    <path id="path72" style="fill:#885136;fill-opacity:1;fill-rule:nonzero;stroke:none" d="M 2512.21 1873.12 L 2512.21 1608.02 L 2495.49 1605.14 C 2486.08 1605.14 2478.53 1612.77 2478.53 1622.12 L 2478.53 1856.91 C 2478.53 1866.34 2486.08 1873.9 2495.49 1873.9 L 2512.21 1873.12"/>
    <path id="path74" style="fill:#68331d;fill-opacity:1;fill-rule:nonzero;stroke:none" d="M 2512.21 1752.96 L 2512.21 1608.02 L 2495.49 1605.14 C 2486.08 1605.14 2478.53 1612.77 2478.53 1622.12 L 2478.53 1752.96 L 2512.21 1752.96"/>
    <path id="path76" style="fill:#784129;fill-opacity:1;fill-rule:nonzero;stroke:none" d="M 3488.75 1879.23 L 3471.27 1794.3 L 3466.1 1769.25 C 3464.48 1761.7 3457.87 1756.45 3450.39 1756.45 C 3449.3 1756.45 3448.19 1756.53 3447.17 1756.79 C 3447.01 1756.79 3423.24 1761.37 3390.82 1761.37 C 3355.53 1761.37 3305.55 1755.83 3267.61 1729.54 C 3236.14 1707.72 3217.03 1673.88 3209.4 1626.19 C 3208.54 1621.01 3205.24 1616.59 3200.58 1614.31 C 3198.38 1613.2 3195.91 1612.7 3193.54 1612.7 C 3190.92 1612.7 3188.28 1613.37 3185.9 1614.64 L 3171.63 1622.36 L 3058.61 1683.96 C 3052.68 1687.19 3049.37 1693.9 3050.46 1700.61 C 3068.7 1813.48 3170.45 1843.26 3241.98 1843.26 C 3354.77 1843.26 3398.97 1888.99 3445.38 1895.35 C 3462.36 1897.74 3468.38 1898.57 3472.21 1898.57 C 3473.66 1898.57 3475.01 1898.41 3476.29 1898.15 C 3484.94 1896.39 3490.54 1887.88 3488.75 1879.23"/>
    <path id="path78" style="fill:#885136;fill-opacity:1;fill-rule:nonzero;stroke:none" d="M 3488.75 1879.23 L 3471.27 1794.3 C 3459.56 1796.05 3435.81 1798.95 3406.51 1798.95 C 3360.96 1798.95 3296.29 1791.84 3247.32 1757.88 C 3206.59 1729.72 3182.08 1686.02 3172.06 1624.32 C 3171.97 1623.64 3171.82 1623.04 3171.63 1622.36 L 3058.61 1683.96 C 3052.68 1687.19 3049.37 1693.9 3050.46 1700.61 C 3068.7 1813.48 3170.45 1843.26 3241.98 1843.26 C 3354.77 1843.26 3398.97 1888.99 3445.38 1895.35 C 3462.36 1897.74 3468.38 1898.57 3472.21 1898.57 C 3473.66 1898.57 3475.01 1898.41 3476.29 1898.15 C 3484.94 1896.39 3490.54 1887.88 3488.75 1879.23"/>
    <path id="path80" style="fill:#784129;fill-opacity:1;fill-rule:nonzero;stroke:none" d="M 3525.54 1805.08 C 3525.54 1800.77 3522.05 1797.29 3517.75 1797.29 C 3513.46 1797.29 3509.97 1800.77 3509.97 1805.08 C 3509.97 1809.37 3513.46 1812.85 3517.75 1812.85 C 3522.05 1812.85 3525.54 1809.37 3525.54 1805.08"/>
  </g>
</svg>