<svg id="svg" version="1.1" width="400" height="400.3703703703704" viewBox="0 0 400 400.3703703703704" xmlns="http://www.w3.org/2000/svg" xmlns:xlink="http://www.w3.org/1999/xlink" ><g id="svgg"><path id="path0" d="M190.741 6.315 C 174.354 7.504,157.230 11.449,141.546 17.649 C 137.103 19.405,123.551 25.649,108.704 32.779 C 105.852 34.148,101.685 36.143,99.444 37.212 C 85.212 43.999,79.573 47.071,71.481 52.442 C 34.142 77.226,12.718 115.235,7.620 165.741 C 5.187 189.834,5.450 229.255,8.180 249.766 C 11.593 275.405,16.757 286.556,34.780 307.199 C 37.103 309.860,39.056 312.101,39.119 312.179 C 40.548 313.936,82.705 327.918,100.185 332.431 C 109.181 334.754,109.947 334.864,105.370 333.176 C 86.729 326.300,68.176 314.338,57.953 302.605 C 52.563 296.418,46.471 287.053,48.565 288.172 C 49.048 288.431,52.528 290.383,56.296 292.510 C 104.832 319.903,140.607 330.403,168.220 325.359 C 180.906 323.041,188.786 319.905,215.556 306.515 C 241.722 293.428,244.632 292.193,266.650 284.834 C 290.690 276.798,297.617 273.076,305.633 263.889 C 324.770 241.955,339.529 184.101,333.689 153.913 C 332.852 149.585,332.869 149.540,334.739 151.160 C 343.386 158.644,348.088 173.862,348.776 196.591 C 348.902 200.725,349.115 203.975,349.251 203.813 C 350.739 202.042,355.104 189.648,357.050 181.667 C 362.529 159.193,363.928 125.885,360.911 89.672 L 360.375 83.234 358.614 81.154 C 329.761 47.083,274.846 15.938,230.185 8.316 C 218.053 6.246,202.541 5.459,190.741 6.315 " stroke="none" fill="#ebebeb" fill-rule="evenodd"></path><path id="path1" d="M188.519 0.424 C 168.064 1.957,147.484 7.743,125.370 18.179 C 70.358 44.140,62.590 48.791,45.365 66.081 C 18.200 93.348,5.096 125.026,0.848 173.704 C 0.003 183.383,-0.126 227.691,0.664 236.852 C 4.233 278.227,10.149 290.543,43.188 325.370 C 78.572 362.670,108.888 382.804,142.470 391.307 C 183.426 401.677,228.298 403.186,256.898 395.155 C 295.075 384.435,359.154 329.456,380.976 288.696 C 407.100 239.903,406.301 142.338,379.421 98.883 C 362.718 71.880,334.203 46.288,300.000 27.602 C 260.713 6.138,225.809 -2.371,188.519 0.424 M217.788 6.299 C 277.110 12.147,347.867 56.001,375.679 104.157 C 400.359 146.888,400.453 241.032,375.861 285.731 C 360.431 313.776,327.686 347.013,291.852 371.002 C 265.574 388.593,249.627 393.627,217.963 394.326 C 183.024 395.097,138.529 387.071,116.481 376.020 C 79.603 357.537,24.060 303.447,13.889 276.111 C 3.354 247.800,2.482 176.257,12.200 137.591 C 22.277 97.499,45.739 66.220,80.556 46.458 C 88.718 41.826,131.958 21.221,141.660 17.342 C 165.075 7.979,193.296 3.885,217.788 6.299 " stroke="none" fill="#9ca4c4" fill-rule="evenodd"></path><path id="path2" d="M193.426 6.181 C 193.782 6.274,194.366 6.274,194.722 6.181 C 195.079 6.088,194.787 6.012,194.074 6.012 C 193.361 6.012,193.069 6.088,193.426 6.181 M360.512 85.000 C 363.492 108.561,362.987 147.895,359.421 170.000 C 357.477 182.048,351.867 200.701,349.251 203.813 C 349.115 203.975,348.902 200.725,348.776 196.591 C 348.087 173.846,343.391 158.667,334.710 151.120 C 332.880 149.529,332.854 149.598,333.689 153.913 C 339.529 184.101,324.770 241.955,305.633 263.889 C 297.617 273.076,290.690 276.798,266.650 284.834 C 244.632 292.193,241.722 293.428,215.556 306.515 C 188.786 319.905,180.906 323.041,168.220 325.359 C 140.607 330.403,104.832 319.903,56.296 292.510 C 52.528 290.383,49.048 288.431,48.565 288.172 C 46.471 287.053,52.563 296.418,57.953 302.605 C 68.176 314.338,86.729 326.300,105.370 333.176 C 109.947 334.864,109.181 334.754,100.185 332.431 C 84.790 328.456,62.132 321.177,47.329 315.452 L 39.287 312.341 43.070 316.436 C 69.491 345.043,99.590 368.741,121.111 377.881 C 156.399 392.868,216.191 398.599,251.111 390.342 C 286.953 381.866,348.294 331.700,372.672 290.926 C 390.313 261.421,397.608 214.464,392.380 164.074 C 388.764 129.226,381.062 109.023,362.657 86.111 L 360.277 83.148 360.512 85.000 M6.012 225.185 C 6.012 225.898,6.088 226.190,6.181 225.833 C 6.274 225.477,6.274 224.894,6.181 224.537 C 6.088 224.181,6.012 224.472,6.012 225.185 " stroke="none" fill="#dcdce4" fill-rule="evenodd"></path><path id="path3" d="M6.012 184.815 C 6.012 185.528,6.088 185.819,6.181 185.463 C 6.274 185.106,6.274 184.523,6.181 184.167 C 6.088 183.810,6.012 184.102,6.012 184.815 M393.815 185.926 C 393.815 187.046,393.884 187.505,393.969 186.944 C 394.054 186.384,394.054 185.468,393.969 184.907 C 393.884 184.347,393.815 184.806,393.815 185.926 M5.719 206.111 C 5.719 212.019,5.770 214.383,5.833 211.366 C 5.895 208.349,5.895 203.516,5.832 200.625 C 5.770 197.735,5.719 200.204,5.719 206.111 M393.805 204.815 C 393.805 205.731,393.877 206.106,393.965 205.648 C 394.053 205.190,394.053 204.440,393.965 203.981 C 393.877 203.523,393.805 203.898,393.805 204.815 M47.778 321.597 C 47.778 321.661,48.319 322.203,48.981 322.801 L 50.185 323.889 49.097 322.685 C 48.083 321.563,47.778 321.311,47.778 321.597 M343.333 327.593 C 342.434 328.509,341.781 329.259,341.883 329.259 C 341.985 329.259,342.804 328.509,343.704 327.593 C 344.603 326.676,345.256 325.926,345.154 325.926 C 345.052 325.926,344.233 326.676,343.333 327.593 M335.906 335.093 L 334.630 336.481 336.019 335.205 C 337.311 334.017,337.578 333.704,337.295 333.704 C 337.233 333.704,336.608 334.329,335.906 335.093 M198.981 393.959 C 199.338 394.052,199.921 394.052,200.278 393.959 C 200.634 393.866,200.343 393.790,199.630 393.790 C 198.917 393.790,198.625 393.866,198.981 393.959 " stroke="none" fill="#c9cdda" fill-rule="evenodd"></path><path id="path4" d="M201.019 5.831 C 202.495 5.901,204.912 5.901,206.389 5.831 C 207.866 5.760,206.657 5.703,203.704 5.703 C 200.750 5.703,199.542 5.760,201.019 5.831 M346.481 68.519 C 347.277 69.333,348.011 70.000,348.113 70.000 C 348.215 70.000,347.647 69.333,346.852 68.519 C 346.056 67.704,345.322 67.037,345.220 67.037 C 345.118 67.037,345.686 67.704,346.481 68.519 M49.433 70.093 L 47.222 72.407 49.537 70.197 C 51.687 68.143,52.021 67.778,51.748 67.778 C 51.690 67.778,50.649 68.819,49.433 70.093 M393.805 182.593 C 393.805 183.509,393.877 183.884,393.965 183.426 C 394.053 182.968,394.053 182.218,393.965 181.759 C 393.877 181.301,393.805 181.676,393.805 182.593 M5.674 193.333 C 5.674 194.657,5.741 195.199,5.823 194.537 C 5.906 193.875,5.906 192.792,5.823 192.130 C 5.741 191.468,5.674 192.009,5.674 193.333 M393.797 207.593 C 393.801 208.407,393.877 208.697,393.966 208.236 C 394.054 207.776,394.051 207.109,393.958 206.755 C 393.865 206.401,393.793 206.778,393.797 207.593 M5.674 218.889 C 5.674 220.213,5.741 220.755,5.823 220.093 C 5.906 219.431,5.906 218.347,5.823 217.685 C 5.741 217.023,5.674 217.565,5.674 218.889 M45.910 319.722 C 46.819 320.690,47.610 321.481,47.670 321.481 C 47.948 321.481,47.654 321.149,46.019 319.614 L 44.259 317.963 45.910 319.722 M346.667 324.259 C 345.767 325.176,345.114 325.926,345.216 325.926 C 345.318 325.926,346.137 325.176,347.037 324.259 C 347.937 323.343,348.589 322.593,348.488 322.593 C 348.386 322.593,347.566 323.343,346.667 324.259 M63.704 337.593 C 64.395 338.306,65.043 338.889,65.145 338.889 C 65.247 338.889,64.765 338.306,64.074 337.593 C 63.383 336.880,62.734 336.296,62.632 336.296 C 62.531 336.296,63.013 336.880,63.704 337.593 M333.313 337.685 L 332.037 339.074 333.426 337.798 C 334.719 336.610,334.985 336.296,334.702 336.296 C 334.640 336.296,334.015 336.921,333.313 337.685 M203.611 394.335 C 204.069 394.424,204.819 394.424,205.278 394.335 C 205.736 394.247,205.361 394.175,204.444 394.175 C 203.528 394.175,203.153 394.247,203.611 394.335 " stroke="none" fill="#bcc4d4" fill-rule="evenodd"></path></g></svg>