<svg height="512pt" viewBox="-11 0 512 512" width="512pt" xmlns="http://www.w3.org/2000/svg"><path d="m346.625 47.425781c-1.046875-2.734375-3.160156-4.910156-5.847656-6.039062-2.730469-1.152344-5.757813-1.109375-8.425782.0625-16.191406 7.167969-28.648437 1.066406-34.582031-3.175781-6.078125-4.375-9.042969-9.304688-9.960937-12.035157.449218 0 .703125.023438 1.128906.023438 5.292969.597656 10.242188-3.585938 11.117188-8.980469.875-5.398438-2.519532-10.605469-7.789063-12.011719-13.246094-3.542969-28.605469-5.269531-46.933594-5.269531-17.554687 0-33.214843 1.683594-46.527343 4.992188-5.289063 1.34375-8.726563 6.441406-7.976563 11.839843.746094 5.417969 5.246094 9.128907 10.921875 9.195313.449219-.042969.808594 0 1.085938 0-.832032 2.6875-3.753907 7.65625-9.832032 12.050781-5.972656 4.3125-18.410156 10.457031-34.710937 3.351563-2.644531-1.171876-5.71875-1.214844-8.40625-.0625-2.707031 1.128906-4.796875 3.324218-5.84375 6.058593-8.214844 21.628907-2.175781 45.523438 8.40625 56.125 2.003906 1.984375 4.714843 3.117188 7.550781 3.117188h170.667969c2.835937 0 5.546875-1.132813 7.550781-3.117188 10.582031-10.601562 16.617188-34.496093 8.40625-56.125zm0 0" fill="#455a64"/><path d="m154.027344 51.199219c5.332031-14.507813 18.984375-28.371094 46.507812-35.625.210938 0 .425782 0 .851563-.214844 31.785156-1.066406-2.558594 55.46875-47.359375 35.839844zm0 0" fill="#9e9e9e"/><path d="m173.097656 66.070312c-7.359375 0-15.210937-1.515624-23.359375-5.078124-5.164062-2.261719-7.679687-8.148438-5.757812-13.460938 5.203125-14.164062 18.792969-33.023438 53.820312-42.242188.128907-.042968.257813-.0625.386719-.105468.9375-.296875 1.898438-.449219 2.859375-.492188 14.3125.257813 20.179687 8.066406 21.78125 11.777344 4.222656 9.75.125 22.527344-10.691406 33.300781-8.980469 8.898438-22.761719 16.300781-39.039063 16.300781zm-3.050781-21.503906c10.519531 1.066406 18.519531-3.242187 22.957031-6.488281 6.078125-4.394531 9-9.363281 9.832032-12.050781h-.019532c-14.804687 3.945312-25.898437 10.261718-32.769531 18.539062zm0 0" fill="#9e9e9e"/><path d="m336.640625 51.199219c-45.015625 19.839843-79.359375-37.332031-47.148437-35.625 28.160156 7.039062 41.816406 21.117187 47.148437 35.625zm0 0" fill="#9e9e9e"/><path d="m317.460938 66.113281c-16.339844 0-30.164063-7.488281-39.144532-16.492187-10.773437-10.816406-14.742187-23.550782-10.414062-33.257813 1.644531-3.710937 7.105468-12.246093 22.167968-11.414062 37.546876 9.171875 51.304688 28.179687 56.597657 42.582031 1.941406 5.289062-.554688 11.179688-5.738281 13.460938-8.171876 3.582031-16.066407 5.121093-23.46875 5.121093zm-29.652344-39.9375c.875 2.730469 3.839844 7.679688 9.960937 12.074219 4.417969 3.15625 12.546875 7.382812 22.890625 6.335938-6.890625-8.320313-18.003906-14.589844-32.851562-18.410157zm0 0" fill="#9e9e9e"/><path d="m245.332031 64c-99.988281 0-181.332031 81.34375-181.332031 181.332031 0 102.871094 82.988281 266.667969 181.332031 266.667969 98.347657 0 181.335938-163.796875 181.335938-266.667969 0-99.988281-81.34375-181.332031-181.335938-181.332031zm0 0" fill="#f44336"/><g fill="#455a64"><path d="m202.667969 266.667969c0 23.5625-19.105469 42.664062-42.667969 42.664062s-42.667969-19.101562-42.667969-42.664062c0-23.566407 19.105469-42.667969 42.667969-42.667969s42.667969 19.101562 42.667969 42.667969zm0 0"/><path d="m213.332031 394.667969c0 23.5625-19.101562 42.664062-42.664062 42.664062-23.566407 0-42.667969-19.101562-42.667969-42.664062 0-23.566407 19.101562-42.667969 42.667969-42.667969 23.5625 0 42.664062 19.101562 42.664062 42.667969zm0 0"/><path d="m373.332031 266.667969c0 23.5625-19.101562 42.664062-42.664062 42.664062-23.566407 0-42.667969-19.101562-42.667969-42.664062 0-23.566407 19.101562-42.667969 42.667969-42.667969 23.5625 0 42.664062 19.101562 42.664062 42.667969zm0 0"/><path d="m362.667969 394.667969c0 23.5625-19.105469 42.664062-42.667969 42.664062s-42.667969-19.101562-42.667969-42.664062c0-23.566407 19.105469-42.667969 42.667969-42.667969s42.667969 19.101562 42.667969 42.667969zm0 0"/></g><path d="m245.332031 512c-98.34375 0-181.332031-163.796875-181.332031-266.667969 0-99.988281 81.34375-181.332031 181.332031-181.332031 99.992188 0 181.335938 81.34375 181.335938 181.332031 0 102.871094-82.988281 266.667969-181.335938 266.667969zm0-426.667969c-88.234375 0-160 71.765625-160 160 0 92.417969 74.773438 245.335938 160 245.335938 85.226563 0 160-152.917969 160-245.335938 0-88.234375-71.765625-160-160-160zm0 0"/><path d="m173.121094 65.984375c-5.164063 0-10.582032-.746094-16.214844-2.433594-5.632812-1.683593-8.832031-7.65625-7.125-13.3125 1.683594-5.628906 7.59375-8.832031 13.289062-7.125 15.722657 4.800781 27.328126-2.816406 31.574219-6.292969 6.742188-5.503906 8.621094-11.050781 8.492188-12.328124-1.921875-5.570313 1.085937-11.480469 6.65625-13.398438 5.480469-1.984375 11.691406 1.214844 13.589843 6.742188 3.15625 9.195312-.8125 21.074218-10.390624 31.039062-8.703126 9.085938-22.890626 17.109375-39.871094 17.109375zm0 0"/><path d="m330.667969 106.667969c-2.730469 0-5.460938-1.046875-7.554688-3.117188-4.160156-4.160156-4.160156-10.921875 0-15.082031 3.519531-3.519531 9.621094-18.964844 3.160157-34.539062-8.683594-21.035157-37.441407-32.597657-80.941407-32.597657-43.496093 0-72.253906 11.5625-80.957031 32.578125-6.464844 15.574219-.363281 31.019532 3.15625 34.539063 4.160156 4.160156 4.160156 10.921875 0 15.082031s-10.921875 4.160156-15.082031 0c-10.773438-10.773438-16.832031-35.945312-7.789063-57.769531 8.664063-20.886719 33.132813-45.761719 100.671875-45.761719 67.542969 0 92.011719 24.875 100.671875 45.761719 9.046875 21.824219 3.007813 46.996093-7.785156 57.789062-2.089844 2.070313-4.820312 3.117188-7.550781 3.117188zm0 0"/><path d="m317.546875 65.984375c-16.980469 0-31.167969-8.023437-39.894531-17.089844-9.578125-9.960937-13.566406-21.84375-10.386719-31.039062 1.898437-5.566407 7.890625-8.511719 13.566406-6.613281 5.503907 1.898437 8.449219 7.828124 6.675781 13.332031-.042968 1.429687 1.898438 6.871093 8.492188 12.246093 4.246094 3.476563 15.894531 11.074219 31.574219 6.292969 5.714843-1.726562 11.625 1.496094 13.289062 7.125 1.707031 5.65625-1.492187 11.605469-7.125 13.292969-5.632812 1.683594-11.027343 2.453125-16.191406 2.453125zm0 0"/><path d="m245.332031 512c-5.886719 0-10.664062-4.777344-10.664062-10.667969v-426.664062c0-5.890625 4.777343-10.667969 10.664062-10.667969 5.890625 0 10.667969 4.777344 10.667969 10.667969v426.664062c0 5.890625-4.777344 10.667969-10.667969 10.667969zm0 0"/><path d="m160 320c-29.417969 0-53.332031-23.914062-53.332031-53.332031 0-29.421875 23.914062-53.335938 53.332031-53.335938s53.332031 23.914063 53.332031 53.335938c0 29.417969-23.914062 53.332031-53.332031 53.332031zm0-85.332031c-17.644531 0-32 14.355469-32 32 0 17.640625 14.355469 32 32 32s32-14.359375 32-32c0-17.644531-14.355469-32-32-32zm0 0"/><path d="m170.667969 448c-29.421875 0-53.335938-23.914062-53.335938-53.332031 0-29.421875 23.914063-53.335938 53.335938-53.335938 29.417969 0 53.332031 23.914063 53.332031 53.335938 0 29.417969-23.914062 53.332031-53.332031 53.332031zm0-85.332031c-17.644531 0-32 14.355469-32 32 0 17.640625 14.355469 32 32 32 17.640625 0 32-14.359375 32-32 0-17.644531-14.359375-32-32-32zm0 0"/><path d="m330.667969 320c-29.421875 0-53.335938-23.914062-53.335938-53.332031 0-29.421875 23.914063-53.335938 53.335938-53.335938 29.417969 0 53.332031 23.914063 53.332031 53.335938 0 29.417969-23.914062 53.332031-53.332031 53.332031zm0-85.332031c-17.644531 0-32 14.355469-32 32 0 17.640625 14.355469 32 32 32 17.640625 0 32-14.359375 32-32 0-17.644531-14.359375-32-32-32zm0 0"/><path d="m320 448c-29.417969 0-53.332031-23.914062-53.332031-53.332031 0-29.421875 23.914062-53.335938 53.332031-53.335938s53.332031 23.914063 53.332031 53.335938c0 29.417969-23.914062 53.332031-53.332031 53.332031zm0-85.332031c-17.644531 0-32 14.355469-32 32 0 17.640625 14.355469 32 32 32s32-14.359375 32-32c0-17.644531-14.355469-32-32-32zm0 0"/><path d="m96 170.667969c-3.222656 0-6.441406-1.472657-8.511719-4.246094-8.042969-10.6875-33.707031-38.421875-55.488281-38.421875-5.886719 0-10.667969-4.777344-10.667969-10.667969 0-5.886719 4.78125-10.664062 10.667969-10.664062 36.289062 0 68.929688 42.132812 72.535156 46.933593 3.519532 4.714844 2.578125 11.367188-2.136718 14.910157-1.917969 1.449219-4.179688 2.15625-6.398438 2.15625zm0 0"/><path d="m10.667969 298.667969c-5.890625 0-10.667969-4.78125-10.667969-10.667969 0-7.316406 2.945312-13.84375 8.449219-18.964844 17.664062-16.257812 58.941406-13.738281 67.113281-12.992187 5.84375.46875 10.21875 5.652343 9.726562 11.5-.46875 5.863281-5.714843 10.109375-11.496093 9.746093-16.40625-1.34375-42.902344.109376-50.882813 7.46875-1.300781 1.195313-1.578125 2.132813-1.578125 3.242188 0 5.886719-4.777343 10.667969-10.664062 10.667969zm0 0"/><path d="m53.332031 448c-5.886719 0-10.664062-4.777344-10.664062-10.667969 0-33.320312 60.03125-50.003906 72.085937-53.011719 5.628906-1.386718 11.476563 2.046876 12.925782 7.765626 1.410156 5.714843-2.046876 11.5-7.765626 12.925781-23.445312 5.890625-55.914062 20.394531-55.914062 32.320312 0 5.890625-4.777344 10.667969-10.667969 10.667969zm0 0"/><path d="m394.667969 170.667969c-2.21875 0-4.480469-.707031-6.402344-2.15625-4.714844-3.542969-5.652344-10.195313-2.132813-14.910157 3.605469-4.800781 36.246094-46.933593 72.535157-46.933593 5.886719 0 10.664062 4.777343 10.664062 10.664062 0 5.890625-4.777343 10.667969-10.664062 10.667969-21.78125 0-47.445313 27.734375-55.488281 38.421875-2.070313 2.773437-5.292969 4.246094-8.511719 4.246094zm0 0"/><path d="m480 298.667969c-5.886719 0-10.667969-4.78125-10.667969-10.667969 0-1.109375-.277343-2.046875-1.578125-3.242188-8.019531-7.402343-34.539062-8.8125-50.859375-7.46875-5.949219.300782-11.050781-3.859374-11.519531-9.726562-.488281-5.867188 3.882812-11.050781 9.730469-11.519531 8.082031-.726563 49.40625-3.242188 67.113281 12.992187 5.523438 5.097656 8.449219 11.648438 8.449219 18.964844 0 5.886719-4.78125 10.667969-10.667969 10.667969zm0 0"/><path d="m437.332031 448c-5.886719 0-10.664062-4.777344-10.664062-10.667969 0-11.925781-32.46875-26.429687-55.914063-32.320312-5.742187-1.425781-9.195312-7.230469-7.765625-12.925781 1.449219-5.738282 7.144531-9.175782 12.925781-7.765626 12.03125 3.027344 72.085938 19.710938 72.085938 53.011719 0 5.890625-4.777344 10.667969-10.667969 10.667969zm0 0"/><path d="m288 160c0 23.5625-19.101562 42.667969-42.667969 42.667969-23.5625 0-42.664062-19.105469-42.664062-42.667969s19.101562-42.667969 42.664062-42.667969c23.566407 0 42.667969 19.105469 42.667969 42.667969zm0 0" fill="#455a64"/><path d="m245.332031 213.332031c-29.417969 0-53.332031-23.914062-53.332031-53.332031s23.914062-53.332031 53.332031-53.332031c29.421875 0 53.335938 23.914062 53.335938 53.332031s-23.914063 53.332031-53.335938 53.332031zm0-85.332031c-17.640625 0-32 14.355469-32 32s14.359375 32 32 32c17.644531 0 32-14.355469 32-32s-14.355469-32-32-32zm0 0"/></svg>