<svg version="1.1" id="logo_file" xmlns="http://www.w3.org/2000/svg" xmlns:xlink="http://www.w3.org/1999/xlink" x="0px" y="0px"
   viewBox="0 0 4000 4000" style="enable-background:new 0 0 4000 4000;" xml:space="preserve">
<g>
  <g>
    <path class="st0" fill="#FB713F" d="M2968.4,678.9c-345.3,0-899.8,0-899.8,0v0.3c-101.2-0.2-223.5-0.3-357.1-0.3
      c-356.4,0-575.4,253.4-648.6,550.2c-52.6,214.3-72.9,314.8-304.6,1208.9c-0.6,2.9-1.5,6.3-2.3,8.8c-0.9,4-1.4,7.7-2.1,11.6
      l-221.1,856.4c0,0-52.7,255.9,271.9,58.5c158.9-96.7,409.2-248.4,612.1-371c312.3,0,650.4,0,650.4,0v-0.1
      c100.7,0.1,223.4,0.1,357,0.1c357.1,0,576.1-253.9,649.2-551.5c1-4.2,167.9-668.4,307.4-1221.7
      C3463.9,875.2,3311.5,678.9,2968.4,678.9z"/>
  </g>
  <path class="st1" fill="#FFFFFF" d="M2901.9,1318c-8.2,106.2-46.8,158-106.3,211.4l-876.5,685.2h708.8l-115.5,430c-348.3,0-877.8,0.1-1009.3,0.1
    c-162.3,0-283.8-132.4-271.3-294.7c7.3-94.8,36.4-145.6,85-190.3l920.6-718h-724.2l109.3-413.3c347.1,0,811.3,0,1007.7,0
    C2792.4,1028.4,2914.5,1155.9,2901.9,1318z"/>
</g>
</svg>